<svg width="24" height="24" viewBox="0 0 24 24" fill="none" xmlns="http://www.w3.org/2000/svg">
<path d="M11.9884 0.0395355C5.3875 0.0395355 0.0361328 5.39076 0.0361328 11.9917C0.0361328 18.5929 5.3875 23.9437 11.9884 23.9437C18.5901 23.9437 23.9409 18.5929 23.9409 11.9917C23.9409 5.39119 18.5902 0.0395355 11.9884 0.0395355ZM17.4697 17.278C17.2556 17.6291 16.796 17.7404 16.4449 17.5249C13.6386 15.8107 10.1059 15.4225 5.94541 16.3731C5.5445 16.4644 5.14487 16.2132 5.05352 15.8122C4.96175 15.4111 5.21195 15.0115 5.61386 14.9201C10.1668 13.88 14.0722 14.3278 17.2228 16.2532C17.5739 16.4687 17.6852 16.9269 17.4697 17.278ZM18.9326 14.0235C18.6629 14.462 18.0891 14.6004 17.6509 14.3307C14.4382 12.3559 9.54082 11.784 5.74075 12.9375C5.24791 13.0864 4.72739 12.8087 4.57781 12.3167C4.42938 11.8238 4.70727 11.3043 5.19924 11.1545C9.53997 9.83738 14.9363 10.4754 18.6258 12.7426C19.0639 13.0123 19.2024 13.5859 18.9326 14.0235ZM19.0582 10.6347C15.206 8.34661 8.85046 8.13623 5.17255 9.25249C4.58195 9.43161 3.95739 9.09821 3.77841 8.50761C3.59943 7.91672 3.93255 7.29258 4.52358 7.11303C8.74555 5.83135 15.7641 6.07898 20.1992 8.71185C20.7315 9.02713 20.9057 9.71321 20.5902 10.2437C20.2762 10.775 19.5877 10.9501 19.0582 10.6347Z" fill="#57B65F"/>
</svg>
